<svg xmlns="http://www.w3.org/2000/svg" viewBox="0 0 500 500"><g id="freepik--Floor--inject-60"><path d="M405.32,264.64c86.34,48.85,86.79,128,1,176.89s-225.3,48.84-311.64,0-86.8-128-1-176.89S319,215.79,405.32,264.64Z" style="fill:#f0f0f0"></path></g><g id="freepik--Clouds--inject-60"><path d="M122.94,50.4c-4.67,2.7-8.71,8.13-10.65,13.77a8.42,8.42,0,0,0-3.48,1.2l-.75.46a20.37,20.37,0,0,0-8,12.85,11.84,11.84,0,0,0,0,4,.7.7,0,0,1-.32.65L94.9,86.1a8.41,8.41,0,0,0-3.8,6.58c0,2.42,1.72,3.4,3.83,2.18l47.12-27.21a8.34,8.34,0,0,0,3.8-6.58c0-2.42-1.72-3.39-3.82-2.17l-7.72,4.45c-.24.14-.4,0-.31-.34a19.32,19.32,0,0,0,.86-6.95c-.51-6.38-5.23-9-11-6.13C123.53,50.07,123.23,50.23,122.94,50.4Z" style="fill:#e6e6e6"></path><path d="M86.11,44.4a18.08,18.08,0,0,0-7.35,9.51,5.81,5.81,0,0,0-2.4.82,5.69,5.69,0,0,0-.52.33,14,14,0,0,0-5.53,8.87,8.18,8.18,0,0,0,0,2.75.48.48,0,0,1-.22.45l-3.33,1.92a5.8,5.8,0,0,0-2.62,4.54c0,1.67,1.19,2.34,2.64,1.5L99.3,56.31a5.8,5.8,0,0,0,2.62-4.54c0-1.67-1.19-2.34-2.64-1.5L94,53.34c-.17.1-.28,0-.22-.23a13.29,13.29,0,0,0,.59-4.8c-.35-4.4-3.61-6.21-7.62-4.23Z" style="fill:#e6e6e6"></path></g><g id="freepik--Shadows--inject-60"><path d="M107.27,377.08l13.87,8.3a6.79,6.79,0,0,0,7,0l112.77-67.53a2.41,2.41,0,0,0,0-4.11L227,305.44a6.79,6.79,0,0,0-7,0L107.27,373A2.41,2.41,0,0,0,107.27,377.08Z" style="fill:#e0e0e0"></path><path d="M369.76,356.76c23.3,13.46,23.43,35.27.28,48.72s-60.81,13.46-84.11,0-23.43-35.26-.28-48.72S346.46,343.31,369.76,356.76Z" style="fill:#e0e0e0"></path></g><g id="freepik--Plants--inject-60"><path d="M93.18,303.48c-2.57-2.46-5.52-5.15-5.7-8.71a7.82,7.82,0,0,1,5.12-7.29,11.85,11.85,0,0,1,9.23.7,25.27,25.27,0,0,1,7.39,5.91,59.2,59.2,0,0,1,13.94,51.72c-.26,1.2-.66,2.53-1.74,3.1-1.72.91-3.68-.69-4.86-2.24a35.84,35.84,0,0,1-5.71-11.3c-1-3.45-.56-7.25-1.86-10.5C105.81,316.9,99.3,309.33,93.18,303.48Z" style="fill:#408DFF"></path><path d="M93.18,303.48c-2.57-2.46-5.52-5.15-5.7-8.71a7.82,7.82,0,0,1,5.12-7.29,11.85,11.85,0,0,1,9.23.7,25.27,25.27,0,0,1,7.39,5.91,59.2,59.2,0,0,1,13.94,51.72c-.26,1.2-.66,2.53-1.74,3.1-1.72.91-3.68-.69-4.86-2.24a35.84,35.84,0,0,1-5.71-11.3c-1-3.45-.56-7.25-1.86-10.5C105.81,316.9,99.3,309.33,93.18,303.48Z" style="fill:#408DFF"></path><path d="M119.92,344.26h0a.68.68,0,0,1-.68-.69,67.27,67.27,0,0,0-25.18-51.91.7.7,0,0,1-.12-1,.71.71,0,0,1,1-.11,68.63,68.63,0,0,1,25.7,53A.69.69,0,0,1,119.92,344.26Z" style="fill:#fff"></path><path d="M111.49,371.54c-4.33,1.39-9.76.48-12.27-3.32-3-4.46-1.11-11.34-5.06-15-2.21-2-5.46-2.22-8.39-2.82s-6.18-2.23-6.62-5.19c-.58-3.92,4.24-7.18,3.57-11.09s-6-5.06-7.57-8.64c-1.43-3.26,1.1-7.21,4.46-8.43s7.09-.38,10.43.86,6.59,2.88,10.13,3.32,7.94-.27,10.64,2.26c3.62,3.38,1.55,9.83,4.34,13.91,1.88,2.74,5.41,3.69,8.11,5.61a13,13,0,0,1,5.36,10.65c-.09,4.49-2.45,7.74-5.85,10.32C119.17,366.78,116,370.1,111.49,371.54Z" style="fill:#408DFF"></path><path d="M111.49,371.54c-4.33,1.39-9.76.48-12.27-3.32-3-4.46-1.11-11.34-5.06-15-2.21-2-5.46-2.22-8.39-2.82s-6.18-2.23-6.62-5.19c-.58-3.92,4.24-7.18,3.57-11.09s-6-5.06-7.57-8.64c-1.43-3.26,1.1-7.21,4.46-8.43s7.09-.38,10.43.86,6.59,2.88,10.13,3.32,7.94-.27,10.64,2.26c3.62,3.38,1.55,9.83,4.34,13.91,1.88,2.74,5.41,3.69,8.11,5.61a13,13,0,0,1,5.36,10.65c-.09,4.49-2.45,7.74-5.85,10.32C119.17,366.78,116,370.1,111.49,371.54Z" style="opacity:0.30000000000000004"></path><path d="M109.54,340.83l-.05-.07c-.65-.94-1.32-1.87-2-2.76a49.82,49.82,0,0,0-24.9-16.56.69.69,0,1,0-.38,1.32,48.42,48.42,0,0,1,24.21,16.1c.19.24.36.51.55.75-7.76-2.85-15.68-1.23-19.9,2.17a.68.68,0,0,0-.1,1,.68.68,0,0,0,1,.11c4.18-3.37,12.81-4.87,20.63-1.08A48.39,48.39,0,0,1,116.84,366a.68.68,0,0,0,.68.64h0a.68.68,0,0,0,.65-.72A49.8,49.8,0,0,0,109.54,340.83Z" style="fill:#fff"></path><path d="M374.71,325.4c2.09-2,4.48-4.18,4.62-7.06a6.32,6.32,0,0,0-4.15-5.91,9.56,9.56,0,0,0-7.49.57,20.21,20.21,0,0,0-6,4.79,48,48,0,0,0-11.32,42,3.55,3.55,0,0,0,1.42,2.52c1.4.74,3-.56,3.94-1.82a28.88,28.88,0,0,0,4.63-9.18c.84-2.79.46-5.88,1.51-8.51C364.46,336.3,369.74,330.15,374.71,325.4Z" style="fill:#408DFF"></path><path d="M353,358.49h0a.56.56,0,0,0,.56-.56A54.56,54.56,0,0,1,374,315.81a.56.56,0,0,0-.69-.87,55.7,55.7,0,0,0-20.85,43A.56.56,0,0,0,353,358.49Z" style="fill:#fff"></path><path d="M359.85,380.62c3.52,1.13,7.93.39,10-2.69,2.39-3.62.9-9.2,4.1-12.13,1.8-1.63,4.43-1.8,6.81-2.29s5-1.8,5.37-4.2c.47-3.19-3.44-5.83-2.89-9s4.86-4.1,6.14-7c1.16-2.65-.9-5.86-3.62-6.84s-5.75-.31-8.46.69-5.35,2.34-8.22,2.69-6.44-.22-8.63,1.84c-2.94,2.74-1.26,8-3.53,11.29-1.52,2.22-4.38,3-6.57,4.54a10.53,10.53,0,0,0-4.35,8.65c.07,3.64,2,6.27,4.74,8.37C353.63,376.76,356.24,379.46,359.85,380.62Z" style="fill:#408DFF"></path><path d="M359.85,380.62c3.52,1.13,7.93.39,10-2.69,2.39-3.62.9-9.2,4.1-12.13,1.8-1.63,4.43-1.8,6.81-2.29s5-1.8,5.37-4.2c.47-3.19-3.44-5.83-2.89-9s4.86-4.1,6.14-7c1.16-2.65-.9-5.86-3.62-6.84s-5.75-.31-8.46.69-5.35,2.34-8.22,2.69-6.44-.22-8.63,1.84c-2.94,2.74-1.26,8-3.53,11.29-1.52,2.22-4.38,3-6.57,4.54a10.53,10.53,0,0,0-4.35,8.65c.07,3.64,2,6.27,4.74,8.37C353.63,376.76,356.24,379.46,359.85,380.62Z" style="opacity:0.30000000000000004"></path><path d="M361.44,355.71l0-.06c.53-.76,1.07-1.51,1.65-2.23A40.31,40.31,0,0,1,383.33,340a.56.56,0,0,1,.69.38.56.56,0,0,1-.39.69A39.19,39.19,0,0,0,364,354.11c-.16.2-.3.41-.45.61,6.29-2.32,12.71-1,16.14,1.76a.56.56,0,0,1-.35,1,.53.53,0,0,1-.35-.13c-3.39-2.73-10.39-3.94-16.74-.87a39.33,39.33,0,0,0-6.73,19.65.56.56,0,0,1-.56.52h0a.55.55,0,0,1-.52-.59A40.32,40.32,0,0,1,361.44,355.71Z" style="fill:#fff"></path></g><g id="freepik--speech-bubble--inject-60"><path d="M423.56,68.44a1.27,1.27,0,0,0-.65-1.11h0l-5.78-3.21h-.05a1.25,1.25,0,0,0-1.24,0L376.32,86.94a3.89,3.89,0,0,0-1.93,3.35l0,14.69-13.68,14.15c-1.22,1.27-1.35,3.18-.4,3.48l5.45,3a.85.85,0,0,0,.75.24l7.94-1,0,10.78a1.25,1.25,0,0,0,.63,1.1h0l5.74,3.19.08,0,.06,0a1.27,1.27,0,0,0,1.18-.05l39.52-22.82a3.84,3.84,0,0,0,1.93-3.35ZM381.2,90.89l-.13.15Zm-.37.48-.1.14Zm-.55,1.29a1,1,0,0,0,0,.17A1,1,0,0,1,380.28,92.66Zm1.21-2a1.49,1.49,0,0,1,.14-.12A1.49,1.49,0,0,0,381.49,90.61Z" style="fill:#408DFF"></path><path d="M410,82.66a1.49,1.49,0,0,0-.46.36,1.27,1.27,0,0,0-.23.41,20.43,20.43,0,0,0-1.1,2.68c-.33.81-.64,1.62-.92,2.44a2,2,0,0,0-.17.46,3,3,0,0,0-.22.61c-.18.46-.36.91-.53,1.37-.07.13-.13.25-.19.38a7.67,7.67,0,0,0-.44,1.18,1.08,1.08,0,0,0,.12,1.07,3.42,3.42,0,0,0,1.54.84l.15.05.48.13.83.41.16.1c.05.07.11.13.16.19a1,1,0,0,1,.13.24.9.9,0,0,1,0,.41c-.05.2-.1.41-.14.61s-.25.68-.37,1l-.18.44L408,99.5c-.21.47-.36.86-.51,1.25a7.26,7.26,0,0,0-.38.86l-.21.43c-.17.36-.35.72-.52,1.09l-.15.32-.56,1-.21.4-.65,1.14-.17.29L404,107.5l-.2.3-1.5,2.18-.6.81-.17.23-1.83,2.32L399,114a1.82,1.82,0,0,1-.47.4.71.71,0,0,1-.75,0l-.45-.23c0-.07-.06-.08-.11-.09a13.72,13.72,0,0,0-2-1.46.83.83,0,0,0-.89,0,1.5,1.5,0,0,0-.23.17,3.84,3.84,0,0,0-.77.87.4.4,0,0,0-.17.21c-.55.77-1.16,1.46-1.73,2.2s-1.05,1.23-1.56,1.87c-.29.33-.57.67-.84,1s-.61.75-.9,1.16a2.78,2.78,0,0,0-.31.43,1.5,1.5,0,0,0-.36,1.23,5,5,0,0,0,.07.8,3.48,3.48,0,0,0,.21,1,2.18,2.18,0,0,0,.18.61,1.62,1.62,0,0,0,.1.18.32.32,0,0,0,0,.14.91.91,0,0,0,.11.16.54.54,0,0,0,.29.33.91.91,0,0,0,.36.29l.25.1.17,0,.21.08.1,0a.82.82,0,0,0,.35,0,.17.17,0,0,0,.17,0,.93.93,0,0,0,.44,0,1.12,1.12,0,0,0,.48,0,1.59,1.59,0,0,0,.48,0l.29,0a3.2,3.2,0,0,0,.67-.14l.11,0,.24-.06a.41.41,0,0,0,.17-.07l.25-.09a4.73,4.73,0,0,0,.73-.28l.2-.1.16-.09a3.93,3.93,0,0,0,.41-.26,5.25,5.25,0,0,0,.47-.31,6.41,6.41,0,0,0,.52-.39q.22-.15.45-.33l.18-.16.09-.08.25-.21a9.8,9.8,0,0,0,.74-.71,4.4,4.4,0,0,0,.54-.52.5.5,0,0,0,.15-.17,9.69,9.69,0,0,0,1-1,9,9,0,0,0,.76-.75,5.14,5.14,0,0,0,.56-.58l.31-.32a.84.84,0,0,0,.23-.26.26.26,0,0,0,.11-.12l.17-.16a4,4,0,0,0,.26-.32,6.91,6.91,0,0,0,.51-.57l.16-.2.16-.2a12.19,12.19,0,0,0,.89-1.1,2.29,2.29,0,0,0,.38-.49,5.63,5.63,0,0,0,.51-.67,9.77,9.77,0,0,0,.71-1c.14-.18.2-.27.27-.35l.18-.26c.13-.18.24-.36.36-.55l.23-.31a3.62,3.62,0,0,0,.2-.33,3.43,3.43,0,0,0,.39-.6,7.32,7.32,0,0,0,.52-.8,2,2,0,0,0,.16-.24.75.75,0,0,0,.07-.12l.07-.13.17-.24c.16-.25.31-.5.45-.77l.2-.33.63-1.09a1.25,1.25,0,0,0,.21-.35c.16-.26.31-.52.46-.8,0-.09.09-.18.14-.27a2,2,0,0,0,.21-.39l.54-1c.09-.19.19-.37.28-.56a4.83,4.83,0,0,0,.39-.79c.43-.79.81-1.59,1.16-2.41l.16-.37a6.26,6.26,0,0,0,.38-.89,29.54,29.54,0,0,0,1.09-2.81l.09-.24a15,15,0,0,0,.53-1.65c.22-.68.4-1.35.57-2,.06-.22.12-.44.17-.67a.32.32,0,0,0,.06-.22,1.42,1.42,0,0,0,0-.16l.08-.3a19.67,19.67,0,0,0,.58-2.48v-.13a.45.45,0,0,0,0-.22s0-.09,0-.13,0-.16,0-.23a2.11,2.11,0,0,1,0-.25,5.72,5.72,0,0,0,.09-1.07c0-.14,0-.29,0-.44a.63.63,0,0,0,0-.31c0-.05,0-.11,0-.17a2.9,2.9,0,0,0-.16-.92,4.81,4.81,0,0,0-.42-1.28,4.94,4.94,0,0,0-1.08-1.76,1.16,1.16,0,0,0-.51-.42s-.05-.08-.11-.07a.89.89,0,0,0-.58-.18,4.45,4.45,0,0,0-1.84.32l-.21.09a2.26,2.26,0,0,0-.52.2l-.1.06C410.28,82.5,410.13,82.56,410,82.66Z" style="fill:#fff"></path><path d="M380.31,138.9a1.26,1.26,0,0,0,.61,1.09l-5.74-3.19h0a1.25,1.25,0,0,1-.63-1.1l0-10.78,5.77-.71Z" style="opacity:0.1"></path><path d="M376.32,86.94l39.53-22.82a1.25,1.25,0,0,1,1.24,0h.05l5.78,3.21h0a1.3,1.3,0,0,0-1.28,0L382.11,90.15A3.87,3.87,0,0,0,380.47,92l-5.74-3.31A3.84,3.84,0,0,1,376.32,86.94Z" style="fill:#fff;opacity:0.2"></path><path d="M374.43,105l0-14.69a3.83,3.83,0,0,1,.34-1.58L380.47,92a4,4,0,0,0-.29,1.49l0,14.69L374.43,105Z" style="fill:#fff;opacity:0.1"></path><path d="M360.75,119.13,374.43,105l5.79,3.22h0l-13.68,14.14c-1.06,1.1-1.3,2.67-.74,3.28l-5.45-3C359.4,122.31,359.53,120.4,360.75,119.13Z" style="fill:#fff;opacity:0.05"></path></g><g id="freepik--Device--inject-60"><path d="M234.89,59.81h0c-.76-2.88-6.15-8.37-11.51-8.26a4.35,4.35,0,0,0-1.51.33L117.7,116.29a10.5,10.5,0,0,0-4,4.66,11.57,11.57,0,0,0-1,4.76V370.65c0,6.24,6.62,12.19,12.84,9.33,0,0,0,0,0,0a3.52,3.52,0,0,0,.4-.18l104.18-64.53a11,11,0,0,0,5-9.41V61A2.8,2.8,0,0,0,234.89,59.81Z" style="fill:#37474f"></path><path d="M127.2,151.6a5.51,5.51,0,0,1,2.52-4.71l96.73-59.82a2.5,2.5,0,0,1,3.72,2.35V286.94a5.5,5.5,0,0,1-2.52,4.7l-96.73,59.92a2.5,2.5,0,0,1-3.72-2.35Z" style="fill:#408DFF"></path><path d="M112.66,125.71V370.65c0,6.24,6.62,12.19,12.84,9.33,0,0,0,0,0,0a2.52,2.52,0,0,1-3.33-2.53V132.48a11.5,11.5,0,0,1,1.69-6L113.7,121A11.57,11.57,0,0,0,112.66,125.71Z" style="fill:#263238"></path><path d="M223.39,51.54a4.35,4.35,0,0,0-1.51.33L117.7,116.29a10.5,10.5,0,0,0-4,4.66l10.2,5.54a10.27,10.27,0,0,1,3.35-3.43L231.43,58.64a2.39,2.39,0,0,1,3.46,1.17h0C234.14,56.92,228.75,51.43,223.39,51.54Z" style="fill:#455a64"></path><path d="M191.52,99.08c.74-.46,1.34-.1,1.34.81a3.26,3.26,0,0,1-1.33,2.51l-20.44,12.83c-.73.46-1.32.07-1.32-.84a3.21,3.21,0,0,1,1.31-2.48Z" style="fill:#263238"></path><path d="M165.84,115.2c.73-.46,1.32-.09,1.32.82a3.23,3.23,0,0,1-1.32,2.5c-.73.46-1.33.09-1.34-.83A3.24,3.24,0,0,1,165.84,115.2Z" style="fill:#263238"></path><path d="M178.92,97.22c1.46-.92,2.64-.19,2.64,1.64a6.48,6.48,0,0,1-2.62,5c-1.47.91-2.68.16-2.68-1.66A6.45,6.45,0,0,1,178.92,97.22Z" style="fill:#263238"></path><path d="M178.93,327.81c3-1.87,5.38-.38,5.39,3.34s-2.38,8.29-5.36,10.16-5.44.34-5.45-3.38A13.17,13.17,0,0,1,178.93,327.81Z" style="fill:#263238"></path><path d="M188.76,189.86a2.71,2.71,0,0,0-.69.57,2,2,0,0,0-.35.65,32.93,32.93,0,0,0-1.68,4.23c-.5,1.27-1,2.55-1.39,3.83a3,3,0,0,0-.26.73,5.09,5.09,0,0,0-.34,1l-.81,2.14c-.09.21-.19.41-.28.61a12.15,12.15,0,0,0-.66,1.86,1.78,1.78,0,0,0,.17,1.68,5.38,5.38,0,0,0,2.34,1.33l.24.07c.24.08.48.14.72.21l1.26.64.24.17a3.61,3.61,0,0,1,.25.3,1.05,1.05,0,0,1,.19.36,1.39,1.39,0,0,1,0,.65l-.21,1c-.18.54-.37,1.08-.56,1.61l-.27.7c-.28.75-.57,1.51-.86,2.26s-.55,1.36-.78,2a13.21,13.21,0,0,0-.58,1.34c-.1.23-.21.46-.31.68-.27.57-.53,1.14-.79,1.71l-.24.51-.84,1.66c-.1.21-.21.42-.32.63l-1,1.8c-.08.15-.17.3-.26.45-.36.61-.72,1.23-1.09,1.84l-.3.47c-.76,1.15-1.52,2.3-2.29,3.45l-.9,1.27-.25.35-2.79,3.65-.94,1.07a3,3,0,0,1-.71.63,1.08,1.08,0,0,1-1.14.07l-.69-.38c0-.1-.09-.12-.16-.13a20.64,20.64,0,0,0-3.09-2.3,1.24,1.24,0,0,0-1.35,0,2.42,2.42,0,0,0-.35.26,6.9,6.9,0,0,0-1.18,1.37.76.76,0,0,0-.24.35c-.84,1.21-1.76,2.29-2.63,3.45-.81.95-1.61,1.93-2.38,2.95-.44.52-.86,1.05-1.26,1.63a20.93,20.93,0,0,0-1.37,1.81,3.65,3.65,0,0,0-.47.69,2.41,2.41,0,0,0-.55,1.94,6.27,6.27,0,0,0,.1,1.25,5.62,5.62,0,0,0,.32,1.49,3.35,3.35,0,0,0,.28,1,2.44,2.44,0,0,0,.14.28.71.71,0,0,0,.05.22,1.17,1.17,0,0,0,.17.26.89.89,0,0,0,.44.52,1.36,1.36,0,0,0,.54.45,3.2,3.2,0,0,0,.39.16l.26.07a1.79,1.79,0,0,0,.32.13l.15,0a1.55,1.55,0,0,0,.53,0,.24.24,0,0,0,.25,0,1.37,1.37,0,0,0,.67,0,2,2,0,0,0,.73,0,2.38,2.38,0,0,0,.74-.07l.44,0a5.71,5.71,0,0,0,1-.23l.15,0a2.39,2.39,0,0,0,.38-.09.86.86,0,0,0,.24-.11c.29-.09.34-.12.4-.14a8.29,8.29,0,0,0,1.09-.44l.32-.16.23-.14a4.83,4.83,0,0,0,.62-.42l.73-.48a6.26,6.26,0,0,0,.77-.63,6.55,6.55,0,0,0,.7-.51c.09-.07.18-.16.27-.24l.13-.14.38-.33c.38-.35.76-.71,1.12-1.11a6.5,6.5,0,0,0,.83-.83.63.63,0,0,0,.22-.26,17.17,17.17,0,0,0,1.47-1.52,16.29,16.29,0,0,0,1.15-1.19,7.43,7.43,0,0,0,.85-.91l.46-.51a1.56,1.56,0,0,0,.36-.4.49.49,0,0,0,.16-.19,3.31,3.31,0,0,0,.26-.27,3.88,3.88,0,0,0,.4-.49,11.45,11.45,0,0,0,.78-.9l.24-.32.25-.3c.46-.57.92-1.12,1.34-1.75a3.72,3.72,0,0,0,.58-.76,8.21,8.21,0,0,0,.77-1.06,17,17,0,0,0,1.08-1.54c.21-.29.31-.42.4-.56s.2-.27.29-.41.36-.56.53-.85l.35-.49a5.74,5.74,0,0,0,.32-.53,6,6,0,0,0,.59-.94,11.66,11.66,0,0,0,.78-1.27,1.85,1.85,0,0,0,.25-.37l.11-.19a2,2,0,0,0,.1-.21c.09-.12.17-.25.25-.38q.38-.58.69-1.2l.31-.52,1-1.72a2.35,2.35,0,0,0,.31-.56c.25-.4.48-.82.7-1.25l.21-.43a4.14,4.14,0,0,0,.32-.61l.82-1.56c.14-.3.29-.59.43-.88a8.83,8.83,0,0,0,.6-1.24c.65-1.25,1.22-2.52,1.75-3.8l.24-.58a11.52,11.52,0,0,0,.59-1.42c.62-1.46,1.18-2.94,1.65-4.42,0-.13.09-.25.14-.37a21.6,21.6,0,0,0,.79-2.61c.35-1.07.62-2.13.88-3.18.08-.36.17-.71.26-1.06a.71.71,0,0,0,.09-.36c0-.08.05-.16.07-.24l.12-.47a30.87,30.87,0,0,0,.88-3.92l0-.2a.61.61,0,0,0,0-.34l0-.21c0-.12,0-.24.05-.37l0-.38a9,9,0,0,0,.14-1.68c0-.23,0-.47,0-.7a1.29,1.29,0,0,0,0-.49,2.28,2.28,0,0,1,0-.27,4.93,4.93,0,0,0-.25-1.45,7.3,7.3,0,0,0-.64-2,7.92,7.92,0,0,0-1.63-2.78,1.75,1.75,0,0,0-.78-.65c0-.06-.07-.14-.17-.11a1.33,1.33,0,0,0-.88-.29,6.4,6.4,0,0,0-2.79.51l-.32.13a4.18,4.18,0,0,0-.79.32l-.15.1C189.24,189.61,189,189.72,188.76,189.86Z" style="fill:#fff"></path></g></svg>