<svg xmlns="http://www.w3.org/2000/svg" viewBox="0 0 500 500"><g id="freepik--paper-planes--inject-66"><polygon points="84.31 152.03 137.11 135.61 96.49 163.75 84.31 152.03" style="fill:#BA68C8"></polygon><polygon points="137.11 135.61 80.24 144.99 68.06 133.26 137.11 135.61" style="fill:#BA68C8"></polygon><polygon points="80.24 144.99 80.24 159.06 84.31 152.03 137.11 135.61 80.24 144.99" style="fill:#455a64"></polygon><polygon points="80.24 159.06 88.37 155.94 84.31 152.03 80.24 159.06" style="fill:#BA68C8"></polygon><polygon points="84.31 152.03 88.37 155.94 87.07 156.43 84.31 152.03" style="fill:#455a64"></polygon><path d="M71.49,156.94a.75.75,0,0,1-.37-1.41c.9-.5,1.81-1,2.71-1.39a.75.75,0,1,1,.65,1.35c-.87.42-1.76.87-2.63,1.36A.8.8,0,0,1,71.49,156.94Z" style="fill:#e0e0e0"></path><path d="M62.26,237.7a.75.75,0,0,1-.43-.13,41,41,0,0,1-4.61-3.78.75.75,0,1,1,1-1.09,39,39,0,0,0,4.45,3.64.75.75,0,0,1-.44,1.36Zm-7.84-7.28a.74.74,0,0,1-.58-.27,40.94,40.94,0,0,1-3.43-4.87.75.75,0,0,1,1.29-.78,40,40,0,0,0,3.3,4.7.75.75,0,0,1-.1,1.05A.72.72,0,0,1,54.42,230.42Zm-5.63-9.1a.75.75,0,0,1-.69-.44A46.93,46.93,0,0,1,46,215.31a.75.75,0,0,1,1.43-.44,45.67,45.67,0,0,0,2,5.39.75.75,0,0,1-.37,1A.7.7,0,0,1,48.79,221.32Zm-3.25-10.21a.75.75,0,0,1-.73-.61,52,52,0,0,1-.81-5.88.75.75,0,1,1,1.5-.12,48.72,48.72,0,0,0,.78,5.71.74.74,0,0,1-.59.88Zm-.95-10.68h0a.74.74,0,0,1-.74-.76,53.34,53.34,0,0,1,.4-5.92.75.75,0,1,1,1.48.18,53,53,0,0,0-.38,5.76A.75.75,0,0,1,44.59,200.43Zm1.22-10.65a.5.5,0,0,1-.17,0,.75.75,0,0,1-.57-.89,46.76,46.76,0,0,1,1.68-5.71.75.75,0,0,1,1-.45.76.76,0,0,1,.45,1,45.4,45.4,0,0,0-1.62,5.52A.75.75,0,0,1,45.81,189.78Zm3.56-10.1a.62.62,0,0,1-.33-.08.74.74,0,0,1-.35-1,48.28,48.28,0,0,1,2.94-5.17.75.75,0,0,1,1-.21.74.74,0,0,1,.22,1,45.35,45.35,0,0,0-2.85,5A.74.74,0,0,1,49.37,179.68Zm5.75-9a.72.72,0,0,1-.46-.16.75.75,0,0,1-.12-1.06,53,53,0,0,1,4-4.41.75.75,0,0,1,1.06,0,.75.75,0,0,1,0,1.06,53.57,53.57,0,0,0-3.86,4.29A.74.74,0,0,1,55.12,170.64ZM62.64,163a.74.74,0,0,1-.57-.27.76.76,0,0,1,.09-1.06,58.76,58.76,0,0,1,4.75-3.56.75.75,0,0,1,1,.2.76.76,0,0,1-.2,1.05,55.83,55.83,0,0,0-4.63,3.47A.78.78,0,0,1,62.64,163Z" style="fill:#e0e0e0"></path><path d="M69.14,241.61a.7.7,0,0,1-.31-.07c-.93-.42-1.85-.87-2.73-1.35a.74.74,0,0,1-.31-1,.75.75,0,0,1,1-.31c.86.46,1.75.9,2.65,1.31a.75.75,0,0,1-.31,1.43Z" style="fill:#e0e0e0"></path><polygon points="411.19 205.32 453.49 178.24 472.12 184.22 411.19 205.32" style="fill:#BA68C8"></polygon><polygon points="411.19 205.32 447.75 174.84 439.62 165.46 411.19 205.32" style="fill:#BA68C8"></polygon><polygon points="447.75 174.84 447.75 181.91 411.19 205.32 447.75 174.84" style="fill:#455a64"></polygon><path d="M456,171.89a.72.72,0,0,1-.49-.19.76.76,0,0,1-.07-1.06,29.63,29.63,0,0,0,3.45-4.71.75.75,0,0,1,1.3.76,32.37,32.37,0,0,1-3.62,4.95A.75.75,0,0,1,456,171.89Zm5.72-9.32a.86.86,0,0,1-.27,0,.75.75,0,0,1-.42-1,30.36,30.36,0,0,0,1.58-5.63.75.75,0,0,1,1.48.27,32.32,32.32,0,0,1-1.67,5.9A.74.74,0,0,1,461.72,162.57Zm2.14-10.73h0a.74.74,0,0,1-.73-.76c0-.26,0-.52,0-.78a33.41,33.41,0,0,0-.4-5.07.76.76,0,0,1,.63-.86.77.77,0,0,1,.86.63,35.14,35.14,0,0,1,.41,5.3c0,.27,0,.54,0,.81A.76.76,0,0,1,463.86,151.84ZM462.35,141a.74.74,0,0,1-.71-.54,37.83,37.83,0,0,0-2.15-5.47.74.74,0,0,1,.35-1,.75.75,0,0,1,1,.35,38.12,38.12,0,0,1,2.23,5.69.74.74,0,0,1-.5.93A.57.57,0,0,1,462.35,141Zm-4.64-9.93a.73.73,0,0,1-.63-.35,44.8,44.8,0,0,0-3.53-4.71.75.75,0,0,1,.08-1.06.74.74,0,0,1,1.05.08,45.65,45.65,0,0,1,3.66,4.88.77.77,0,0,1-.22,1A.78.78,0,0,1,457.71,131.06Zm-7-8.41a.73.73,0,0,1-.51-.21,54.48,54.48,0,0,0-4.53-3.8.75.75,0,1,1,.9-1.2,54.1,54.1,0,0,1,4.66,3.91.75.75,0,0,1-.52,1.3ZM441.94,116a.75.75,0,0,1-.4-.12c-.68-.42-1.39-.84-2.11-1.25-1-.56-2-1.12-3.06-1.65a.75.75,0,1,1,.68-1.33c1.05.54,2.1,1.1,3.12,1.68.74.41,1.46.84,2.16,1.28a.75.75,0,0,1,.25,1A.77.77,0,0,1,441.94,116Zm-89.65-.51a.76.76,0,0,1-.65-.38.74.74,0,0,1,.27-1c1.74-1,3.53-2,5.34-2.84a.75.75,0,0,1,1,.34.76.76,0,0,1-.35,1c-1.78.87-3.54,1.8-5.25,2.79A.71.71,0,0,1,352.29,115.47Zm79.9-4.57a.66.66,0,0,1-.3-.07c-1.8-.79-3.66-1.53-5.52-2.19a.75.75,0,0,1,.51-1.42c1.89.68,3.78,1.43,5.62,2.24a.75.75,0,0,1-.31,1.44Zm-70.05-.31a.74.74,0,0,1-.69-.46.75.75,0,0,1,.4-1c1.85-.78,3.75-1.5,5.65-2.15a.75.75,0,0,1,1,.46.77.77,0,0,1-.47,1c-1.87.64-3.75,1.35-5.56,2.11A.79.79,0,0,1,362.14,110.59Zm59.73-3.46a.76.76,0,0,1-.21,0c-1.89-.55-3.83-1-5.76-1.47a.75.75,0,0,1,.32-1.47c2,.43,3.94.94,5.86,1.5a.75.75,0,0,1-.21,1.47ZM372.52,107a.75.75,0,0,1-.72-.55.74.74,0,0,1,.51-.92c1.93-.54,3.91-1,5.88-1.44a.75.75,0,1,1,.31,1.46c-1.94.41-3.88.89-5.78,1.42Zm38.63-2.26H411c-1.95-.31-3.94-.56-5.9-.74a.75.75,0,1,1,.13-1.49c2,.18,4,.43,6,.75a.76.76,0,0,1,.62.86A.75.75,0,0,1,411.15,104.71Zm-27.89-.07a.75.75,0,0,1-.74-.63.76.76,0,0,1,.63-.86c2-.3,4-.55,6-.72a.75.75,0,1,1,.13,1.5c-2,.17-3.95.4-5.9.71Zm16.95-1h0c-2-.07-4-.08-5.95,0a.73.73,0,0,1-.77-.72.74.74,0,0,1,.73-.77c2-.07,4-.06,6,0a.75.75,0,0,1,.73.77A.76.76,0,0,1,400.21,103.65Z" style="fill:#e0e0e0"></path></g><g id="freepik--Mailbox--inject-66"><path d="M396.44,219.94v-1.6h-.39a6.26,6.26,0,0,0-2.59-2.54,15.93,15.93,0,0,0-14.42,0,6.26,6.26,0,0,0-2.59,2.54h-.39v1.55c0,1.53,1,3.07,3,4.24a16,16,0,0,0,14.42,0C395.46,223,396.45,221.46,396.44,219.94Z" style="fill:#37474f"></path><ellipse cx="386.25" cy="218.34" rx="10.19" ry="5.89" style="fill:#455a64"></ellipse><path d="M383.63,169.3v48.35a1.31,1.31,0,0,0,.76,1.07,4.11,4.11,0,0,0,3.71,0,1.3,1.3,0,0,0,.77-1.07V169.3Z" style="fill:#37474f"></path><path d="M398,133.11c-2.55-1.47-4.87-1.59-6.61-.62h0L359,151.21l16.25,32.59,32.5-18.8V150.74C407.75,144.11,403.38,136.22,398,133.11Z" style="fill:#455a64"></path><path d="M375.25,169.53V183.8l-19.49-11.26V158.28c0-6.63,4.36-9.48,9.74-6.37,3.45,2,6.48,5.94,8.21,10.26A20.27,20.27,0,0,1,375.25,169.53Z" style="fill:#37474f"></path><path d="M375.25,169.53V183.8l-19.49-11.26,17.95-10.37A20.27,20.27,0,0,1,375.25,169.53Z" style="fill:#263238"></path><path d="M372,174.42c-1.79-5.18-7.61-11.9-13-15s-8.29-1.43-6.5,3.75l3.25,9.38,19.5,11.26S373.8,179.6,372,174.42Z" style="fill:#455a64"></path><path d="M385.41,170.07l-1.09-.63h0a1.46,1.46,0,0,0-1.46.14,4.59,4.59,0,0,0-2.07,3.59,1.45,1.45,0,0,0,.61,1.34h0l1,.58.19-.31a2,2,0,0,0,.59-.23,4.57,4.57,0,0,0,2.07-3.58,2.13,2.13,0,0,0-.07-.53Z" style="fill:#263238"></path><path d="M383.9,170.19a4.57,4.57,0,0,0-2.07,3.58c0,1.32.93,1.85,2.07,1.19a4.56,4.56,0,0,0,2.07-3.58C386,170.06,385,169.53,383.9,170.19Z" style="fill:#37474f"></path><path d="M383.9,173.14a.6.6,0,0,1-.6-.6V151.91a.6.6,0,0,1,1.2,0v20.63A.6.6,0,0,1,383.9,173.14Z" style="fill:#263238"></path><polygon points="384.44 152.45 384.44 157.83 390.21 151.91 384.44 152.45" style="fill:#37474f"></polygon></g><g id="freepik--Plants--inject-66"><path d="M81.08,330.91c-.5.27-9.68,2.87-13.08-1.62s2.25-11.49-.94-14.07-12.13,0-14.28-5.42,4.22-7.76.64-13.23c-2.26-3.45-8.58-5.35-8.29-8.56.42-4.69,9.06-6,16.6-.93s11.06.91,13.45.57,7.55.41,7.39,8.81S81.08,330.91,81.08,330.91Z" style="fill:#BA68C8"></path><path d="M81.69,319a.51.51,0,0,1-.5-.42c-2.63-16-21.16-28.93-30.8-31.71a.49.49,0,0,1-.34-.62.5.5,0,0,1,.62-.34c9.85,2.85,28.81,16.14,31.51,32.51a.5.5,0,0,1-.41.57Z" style="fill:#fff"></path><path d="M59.83,305.61a.5.5,0,0,1-.26-.93c.3-.18,7.44-4.35,14.46-2.4a.5.5,0,0,1-.26,1c-6.62-1.84-13.62,2.25-13.69,2.29A.45.45,0,0,1,59.83,305.61Z" style="fill:#fff"></path><path d="M342.5,246.42c3.94.54,10.65-1.74,11.13-8.3s3.19-8.34,8.16-9.41,6.43-2.8,7-5.92-3.21-6.85-2.15-11.55,4.6-4.69,8.08-10c2.23-3.42-2.34-8.64-9.95-6.4s-7,7.15-14.61,7.78-12.38,5.25-12.53,11S342.5,246.42,342.5,246.42Z" style="fill:#BA68C8"></path><path d="M342.5,246.42c3.94.54,10.65-1.74,11.13-8.3s3.19-8.34,8.16-9.41,6.43-2.8,7-5.92-3.21-6.85-2.15-11.55,4.6-4.69,8.08-10c2.23-3.42-2.34-8.64-9.95-6.4s-7,7.15-14.61,7.78-12.38,5.25-12.53,11S342.5,246.42,342.5,246.42Z" style="opacity:0.2"></path><path d="M341.06,233.84H341a.5.5,0,0,1-.39-.59c3.68-18.19,23.75-34.84,28.64-36.54a.5.5,0,0,1,.33,1c-4.78,1.66-24.39,18-28,35.79A.51.51,0,0,1,341.06,233.84Z" style="fill:#fff"></path></g><g id="freepik--Envelopes--inject-66"><path d="M76.88,227.39a5.74,5.74,0,0,1,2.6-4.5l132.91-76.74a5.78,5.78,0,0,1,5.19,0l2.93,1.7a5.71,5.71,0,0,1,2.6,4.5V254.23a5.77,5.77,0,0,1-2.6,4.5L87.6,335.46a5.74,5.74,0,0,1-5.2,0l-2.92-1.69a5.76,5.76,0,0,1-2.6-4.5Z" style="fill:#BA68C8"></path><path d="M76.88,227.39a5.74,5.74,0,0,1,2.6-4.5l132.91-76.74a5.78,5.78,0,0,1,5.19,0l2.93,1.7a5.71,5.71,0,0,1,2.6,4.5V254.23a5.77,5.77,0,0,1-2.6,4.5L87.6,335.46a5.74,5.74,0,0,1-5.2,0l-2.92-1.69a5.76,5.76,0,0,1-2.6-4.5Z" style="opacity:0.30000000000000004"></path><path d="M89.06,231.43l-11.42-6.6a5.32,5.32,0,0,0-.76,2.56V329.27a5.76,5.76,0,0,0,2.6,4.5l2.92,1.69a5.74,5.74,0,0,0,5.2,0l1.46-.84Z" style="fill:#BA68C8"></path><path d="M89.06,231.43l-11.42-6.6a5.32,5.32,0,0,0-.76,2.56V329.27a5.76,5.76,0,0,0,2.6,4.5l2.92,1.69a5.74,5.74,0,0,0,5.2,0l1.46-.84Z" style="opacity:0.5"></path><path d="M223.11,152.35V254.23a5.3,5.3,0,0,1-.81,2.63,5.57,5.57,0,0,1-1.52,1.7l-.1.06-.17.11L87.6,335.46h0a1.85,1.85,0,0,1-1.77.2A1.79,1.79,0,0,1,85,334V232.08a2.26,2.26,0,0,1,2.92-2.3l55.89,13.29,7.32,1.74a4.82,4.82,0,0,0,4.67-1.75l8.48-11.81,57.08-79.47C222.32,150.44,223.11,150.69,223.11,152.35Z" style="fill:#BA68C8"></path><path d="M223.11,152.35V254.23a5.3,5.3,0,0,1-.81,2.63,5.57,5.57,0,0,1-1.52,1.7l-.1.06-.17.11L87.6,335.46h0a1.85,1.85,0,0,1-1.77.2A1.79,1.79,0,0,1,85,334V232.08a2.26,2.26,0,0,1,2.92-2.3l55.89,13.29,7.32,1.74a4.82,4.82,0,0,0,4.67-1.75l8.48-11.81,57.08-79.47C222.32,150.44,223.11,150.69,223.11,152.35Z" style="opacity:0.2"></path><path d="M220.51,258.73l.17-.11.1-.06a5.57,5.57,0,0,0,1.52-1.7,5.27,5.27,0,0,0,.81-2.59l-58.83-23,39.4,37.2Z" style="fill:#BA68C8"></path><path d="M220.51,258.73l.17-.11.1-.06a5.57,5.57,0,0,0,1.52-1.7,5.27,5.27,0,0,0,.81-2.59l-58.83-23,39.4,37.2Z" style="opacity:0.6000000000000001"></path><path d="M85,334a1.79,1.79,0,0,0,.81,1.71,1.85,1.85,0,0,0,1.77-.2h0L133.36,309l10.45-66L85,332.27Z" style="fill:#BA68C8"></path><path d="M85,334a1.79,1.79,0,0,0,.81,1.71,1.85,1.85,0,0,0,1.77-.2h0L133.36,309l10.45-66L85,332.27Z" style="opacity:0.6000000000000001"></path><path d="M222.3,256.86a5.57,5.57,0,0,1-1.52,1.7l-.1.06L87.6,335.46h0a1.85,1.85,0,0,1-1.77.2l63.65-101.61A10,10,0,0,1,162,230.23Z" style="fill:#BA68C8"></path><path d="M222.3,256.86a5.57,5.57,0,0,1-1.52,1.7l-.1.06L87.6,335.46h0a1.85,1.85,0,0,1-1.77.2l63.65-101.61A10,10,0,0,1,162,230.23Z" style="opacity:0.2"></path><path d="M85,229.08l61.13,27a10,10,0,0,0,12.52-3.85L222.84,149.5Z" style="fill:#BA68C8"></path><path d="M85,229.08l61.13,27a10,10,0,0,0,12.52-3.85L222.84,149.5Z" style="opacity:0.6000000000000001"></path><path d="M85,229.08l61.56,23a10,10,0,0,0,11.87-3.9l64.41-98.68Z" style="fill:#BA68C8"></path><path d="M85,229.08l61.56,23a10,10,0,0,0,11.87-3.9l64.41-98.68Z" style="opacity:0.2"></path><path d="M99.58,239.94a5.71,5.71,0,0,1,2.6-4.5L235.09,158.7a5.74,5.74,0,0,1,5.2,0l2.93,1.69a5.74,5.74,0,0,1,2.59,4.5V266.77a5.76,5.76,0,0,1-2.59,4.5L110.3,348a5.78,5.78,0,0,1-5.19,0l-2.93-1.69a5.77,5.77,0,0,1-2.6-4.5Z" style="fill:#455a64"></path><path d="M99.58,239.94a5.71,5.71,0,0,1,2.6-4.5L235.09,158.7a5.74,5.74,0,0,1,5.2,0l2.93,1.69a5.74,5.74,0,0,1,2.59,4.5V266.77a5.76,5.76,0,0,1-2.59,4.5L110.3,348a5.78,5.78,0,0,1-5.19,0l-2.93-1.69a5.77,5.77,0,0,1-2.6-4.5Z" style="fill:#455a64"></path><path d="M111.77,244l-11.43-6.59a5.29,5.29,0,0,0-.76,2.56V341.82a5.77,5.77,0,0,0,2.6,4.5l2.93,1.69a5.78,5.78,0,0,0,5.19,0l1.47-.85Z" style="fill:#263238"></path><path d="M245.82,164.89V266.77a5.3,5.3,0,0,1-.81,2.63,5.57,5.57,0,0,1-1.52,1.7l-.1.06-.17.11L110.31,348h0a1.85,1.85,0,0,1-1.77.2,1.79,1.79,0,0,1-.81-1.71V244.62a2.26,2.26,0,0,1,2.92-2.3l55.89,13.29,7.32,1.74a4.82,4.82,0,0,0,4.67-1.75L187,243.79l57.08-79.47C245,163,245.82,163.23,245.82,164.89Z" style="fill:#37474f"></path><path d="M243.22,271.27l.17-.11.1-.06a5.57,5.57,0,0,0,1.52-1.7,5.29,5.29,0,0,0,.8-2.58l-58.82-23L226.38,281Z" style="fill:#263238"></path><path d="M107.71,346.5a1.79,1.79,0,0,0,.81,1.71,1.85,1.85,0,0,0,1.77-.2h0l45.76-26.42,10.45-66-58.81,89.2Z" style="fill:#263238"></path><path d="M245,269.4a5.57,5.57,0,0,1-1.52,1.7l-.1.06L110.31,348h0a1.85,1.85,0,0,1-1.77.2l63.64-101.6a10,10,0,0,1,12.52-3.84Z" style="fill:#37474f"></path><path d="M107.71,241.63l61.13,27a10,10,0,0,0,12.51-3.85L245.54,162Z" style="fill:#263238"></path><path d="M107.71,241.63l61.55,23a10,10,0,0,0,11.88-3.9L245.54,162Z" style="fill:#37474f"></path><path d="M197.07,320.81V218.93a10.94,10.94,0,0,1,1.75-5.43l63.39-88.27a10,10,0,0,1,10.44-3.9l59.61,14.17a25,25,0,0,1,5.52,2.2l2.93,1.69a5.77,5.77,0,0,1,2.59,4.5V245.77a5.79,5.79,0,0,1-2.59,4.5L207.79,327a5.75,5.75,0,0,1-5.19,0l-2.93-1.69A5.76,5.76,0,0,1,197.07,320.81Z" style="fill:#BA68C8"></path><path d="M197.07,320.81V218.93a10.94,10.94,0,0,1,1.75-5.43l63.39-88.27a10,10,0,0,1,10.44-3.9l59.61,14.17a25,25,0,0,1,5.52,2.2l2.93,1.69a5.77,5.77,0,0,1,2.59,4.5V245.77a5.79,5.79,0,0,1-2.59,4.5L207.79,327a5.75,5.75,0,0,1-5.19,0l-2.93-1.69A5.76,5.76,0,0,1,197.07,320.81Z" style="fill:#fff;opacity:0.30000000000000004"></path><path d="M209.25,169.69v130c0,1.65,1.17,2.33,2.6,1.5l124.79-72a5.73,5.73,0,0,0,2.6-4.5v-130c0-1.66-1.16-2.33-2.6-1.5L211.85,165.19A5.74,5.74,0,0,0,209.25,169.69Z" style="fill:#fafafa"></path><path d="M210.69,302.06a1.83,1.83,0,0,1-.92-.24,2.27,2.27,0,0,1-1-2.11v-130a6.23,6.23,0,0,1,2.85-4.94l124.79-72a2.07,2.07,0,0,1,3.35,1.94v130a6.2,6.2,0,0,1-2.85,4.93l-124.79,72A2.85,2.85,0,0,1,210.69,302.06ZM337.8,93.28a1.92,1.92,0,0,0-.91.29L212.1,165.62a5.28,5.28,0,0,0-2.35,4.07v130a1.11,1.11,0,0,0,1.85,1.07l124.79-72a5.27,5.27,0,0,0,2.35-4.07v-130a1.39,1.39,0,0,0-.51-1.25A.86.86,0,0,0,337.8,93.28Z" style="fill:#e0e0e0"></path><path d="M206.56,221.41l-9-5.2a9.52,9.52,0,0,0-.48,2.72V320.81a5.76,5.76,0,0,0,2.6,4.5L202.6,327a5.72,5.72,0,0,0,5.19,0l1.25-.71Z" style="fill:#BA68C8"></path><g style="opacity:0.1"><path d="M206.56,221.41l-9-5.2a9.52,9.52,0,0,0-.48,2.72V320.81a5.76,5.76,0,0,0,2.6,4.5L202.6,327a5.72,5.72,0,0,0,5.19,0l1.25-.71Z"></path></g><path d="M343.31,143.89V245.77a5.3,5.3,0,0,1-.81,2.63,5.57,5.57,0,0,1-1.52,1.7l-.1.06-.17.11L207.8,327h0a1.85,1.85,0,0,1-1.77.2,1.79,1.79,0,0,1-.81-1.71V223.62a2.26,2.26,0,0,1,2.92-2.3L264,234.61l7.32,1.74A4.82,4.82,0,0,0,276,234.6l8.48-11.81,57.08-79.47C342.52,142,343.31,142.23,343.31,143.89Z" style="fill:#BA68C8"></path><path d="M343.31,143.89V245.77a5.3,5.3,0,0,1-.81,2.63,5.57,5.57,0,0,1-1.52,1.7l-.1.06-.17.11L207.8,327h0a1.85,1.85,0,0,1-1.77.2,1.79,1.79,0,0,1-.81-1.71V223.62a2.26,2.26,0,0,1,2.92-2.3L264,234.61l7.32,1.74A4.82,4.82,0,0,0,276,234.6l8.48-11.81,57.08-79.47C342.52,142,343.31,142.23,343.31,143.89Z" style="fill:#fff;opacity:0.30000000000000004"></path><path d="M340.71,250.27l.17-.11.1-.06a5.57,5.57,0,0,0,1.52-1.7,5.32,5.32,0,0,0,.8-2.59l-58.82-23L323.87,260Z" style="fill:#BA68C8"></path><path d="M205.2,325.5a1.79,1.79,0,0,0,.81,1.71,1.85,1.85,0,0,0,1.77-.2h0l45.76-26.42,10.45-66-58.81,89.2Z" style="fill:#BA68C8"></path><path d="M342.5,248.4a5.57,5.57,0,0,1-1.52,1.7l-.1.06L207.8,327h0a1.85,1.85,0,0,1-1.77.2l63.64-101.6a10,10,0,0,1,12.51-3.84Z" style="fill:#BA68C8"></path><path d="M342.5,248.4a5.57,5.57,0,0,1-1.52,1.7l-.1.06L207.8,327h0a1.85,1.85,0,0,1-1.77.2l63.64-101.6a10,10,0,0,1,12.51-3.84Z" style="fill:#fff;opacity:0.30000000000000004"></path><path d="M264.2,199.63a7.28,7.28,0,0,1-6.41-2.2c-1.52-1.69-2.28-4.3-2.28-7.81A27.79,27.79,0,0,1,258,178.14a34.7,34.7,0,0,1,6.86-10A47.51,47.51,0,0,1,275.26,160q5.63-3.24,9.61-3.59c2.67-.24,4.68.45,6.06,2.05s2.06,4.05,2.06,7.33a19.17,19.17,0,0,1-2.24,9.34,15.58,15.58,0,0,1-5.92,6.26,4.36,4.36,0,0,1-3,.78,2,2,0,0,1-1.56-1.51,18.33,18.33,0,0,1-3.14,4.29,19.46,19.46,0,0,1-4.28,3.33c-2.72,1.54-4.89,2-6.49,1.47S264,187.6,264,184.9a16.87,16.87,0,0,1,3-9.49,24.1,24.1,0,0,1,8.16-7.48,15.23,15.23,0,0,1,4.39-1.76,6.71,6.71,0,0,1,3.51,0v10.53c0,.85.15,1.37.44,1.57s.77.1,1.45-.29a6.46,6.46,0,0,0,2.65-3.51,17.31,17.31,0,0,0,.95-6.07q0-3.94-1.72-5.73a5.36,5.36,0,0,0-4.71-1.44,18,18,0,0,0-6.87,2.56,33.62,33.62,0,0,0-11.15,10A22.89,22.89,0,0,0,260,187q0,4.31,1.77,6.29a5.46,5.46,0,0,0,4.88,1.68,17.79,17.79,0,0,0,7-2.57,28.62,28.62,0,0,0,4.15-2.92,22.13,22.13,0,0,0,3.27-3.34,1.76,1.76,0,0,1,.35-.34c.09-.05.18,0,.26.12l1.1,2a1.08,1.08,0,0,1,.09.25,1,1,0,0,1-.31.58,30.92,30.92,0,0,1-4,4,35.21,35.21,0,0,1-4.89,3.44A23.63,23.63,0,0,1,264.2,199.63Zm13-18.8a6.7,6.7,0,0,0,1.58-4v-6.1a8.62,8.62,0,0,0-4,1.38,13.79,13.79,0,0,0-4.74,4.41,10.19,10.19,0,0,0-1.75,5.67c0,1.69.42,2.7,1.27,3s2.16,0,3.95-1.07A12.62,12.62,0,0,0,277.24,180.83Z" style="fill:#e0e0e0"></path></g><g id="freepik--Notifications--inject-66"><path d="M136.84,209.65,127.09,204h0l-.07,0h0c-3.33-1.88-7.92-1.6-13,1.33-10.21,5.89-18.48,20.22-18.48,32,0,5.89,2.06,10,5.39,12h0l9.07,5.19,1.64-2.73a19,19,0,0,0,5.3-2.06c10.2-5.9,18.48-20.23,18.48-32a20.06,20.06,0,0,0-.58-4.72Z" style="fill:#f28f8f"></path><path d="M136.84,209.65,127.09,204h0l-.07,0h0c-3.33-1.88-7.92-1.6-13,1.33-10.21,5.89-18.48,20.22-18.48,32,0,5.89,2.06,10,5.39,12h0l9.07,5.19,1.64-2.73a19,19,0,0,0,5.3-2.06c10.2-5.9,18.48-20.23,18.48-32a20.06,20.06,0,0,0-.58-4.72Z" style="fill:#BA68C8"></path><path d="M136.84,209.65,127.09,204h0l-.07,0h0c-3.33-1.88-7.92-1.6-13,1.33-10.21,5.89-18.48,20.22-18.48,32,0,5.89,2.06,10,5.39,12h0l9.07,5.19,1.64-2.73a19,19,0,0,0,5.3-2.06c10.2-5.9,18.48-20.23,18.48-32a20.06,20.06,0,0,0-.58-4.72Z" style="opacity:0.4"></path><path d="M123.39,210.7c-10.21,5.9-18.48,20.23-18.48,32s8.27,16.56,18.48,10.67,18.48-20.22,18.48-32S133.6,204.81,123.39,210.7Z" style="fill:#BA68C8"></path><path d="M116.17,245.52c-.19,0-.29-.11-.29-.28a1.54,1.54,0,0,1,.16-.54l.93-2.09a1.06,1.06,0,0,1,.35-.52,1.13,1.13,0,0,1,.44-.1,9,9,0,0,0,2.44-.49,15.58,15.58,0,0,0,3-1.38A12.15,12.15,0,0,0,127,236.9a5.91,5.91,0,0,0,1.23-3.49c0-2.21-1.35-2.53-4.05-1L121.55,234c-.43.24-.73.33-.91.25s-.27-.32-.27-.72v-.83a1.73,1.73,0,0,1,.27-1,2.69,2.69,0,0,1,.91-.78l2.61-1.51a7.14,7.14,0,0,0,2.58-2.39,5.37,5.37,0,0,0,.86-2.81q0-3.21-4.52-.6a19.62,19.62,0,0,0-4.94,4,3.15,3.15,0,0,1-.44.41.29.29,0,0,1-.35-.08l-.89-1a.5.5,0,0,1-.16-.36,1,1,0,0,1,.28-.61,19.16,19.16,0,0,1,3-3,30.28,30.28,0,0,1,4.11-2.82,12.9,12.9,0,0,1,4.25-1.69,3.35,3.35,0,0,1,2.77.55,3.31,3.31,0,0,1,1,2.67,8.17,8.17,0,0,1-.72,3.19,11.11,11.11,0,0,1-2,3.16,2.69,2.69,0,0,1,2.56.47,3.57,3.57,0,0,1,.85,2.62,10.49,10.49,0,0,1-2.22,6.1,19.55,19.55,0,0,1-6.28,5.46Q118.62,245.77,116.17,245.52Z" style="fill:#fff"></path></g></svg>